<svg width="68" height="29" viewBox="0 0 68 29" fill="none" xmlns="http://www.w3.org/2000/svg">
<g clip-path="url(#clip0)">
<path fill-rule="evenodd" clip-rule="evenodd" d="M28.0009 21.8044H27.9707C27.9843 21.8044 27.9933 21.8225 28.0069 21.8243H28.016L28.0009 21.8062V21.8044ZM28.0069 21.8243C27.8664 21.8261 27.5128 21.9149 27.1396 21.9149C25.9609 21.9149 25.5529 21.2624 25.5529 20.4106V14.7356H27.9556C28.0916 14.7356 28.1973 14.5906 28.1973 14.3913V11.31C28.1973 11.1469 28.0764 11.0019 27.9556 11.0019H25.5529V7.1775C25.5529 7.0325 25.4773 6.94188 25.3413 6.94188H22.0773C21.9413 6.94188 21.8658 7.0325 21.8658 7.1775V11.1106C21.8658 11.1106 20.2187 11.6 20.1129 11.6181C19.992 11.6544 19.9164 11.7813 19.9164 11.9263V14.3913C19.9164 14.5906 20.0373 14.7356 20.1733 14.7356H21.8507V20.6806C21.8507 25.1031 24.4196 25.5563 26.1724 25.5563C26.9733 25.5563 27.9404 25.2481 28.0916 25.1575C28.1822 25.1213 28.2276 24.9944 28.2276 24.8675V22.1488C28.2296 22.0716 28.2085 21.9962 28.168 21.9363C28.1274 21.8764 28.0703 21.836 28.0069 21.8225V21.8243ZM63.8142 17.835C63.8142 14.5544 62.7111 14.1194 61.5476 14.2644C60.6409 14.3369 59.9156 14.8806 59.9156 14.8806V21.2606C59.9156 21.2606 60.656 21.8769 61.7591 21.9131C63.3156 21.9675 63.8142 21.2969 63.8142 17.835ZM67.4862 17.545C67.4862 23.7619 65.8089 25.5381 62.8773 25.5381C60.3991 25.5381 59.0693 24.0338 59.0693 24.0338C59.0693 24.0338 59.0089 24.8675 58.9333 24.9763C58.888 25.085 58.8124 25.1213 58.7218 25.1213H56.4853C56.3342 25.1213 56.1982 24.9763 56.1982 24.8131L56.2284 4.67625C56.2284 4.51313 56.3493 4.36813 56.4853 4.36813H59.704C59.84 4.36813 59.9609 4.51313 59.9609 4.67625V11.5094C59.9609 11.5094 61.2 10.5488 63.0133 10.5488L62.9982 10.5125C64.8116 10.5125 67.4862 11.3281 67.4862 17.545ZM54.3093 11.0019H51.136C50.9698 11.0019 50.8791 11.1469 50.8791 11.3463V21.2063C50.8791 21.2063 50.048 21.9131 48.9147 21.9131C47.7813 21.9131 47.4489 21.2969 47.4489 19.9375V11.3281C47.4489 11.165 47.328 11.02 47.192 11.02H43.9582C43.8222 11.02 43.7013 11.165 43.7013 11.3281V20.59C43.7013 24.5775 45.56 25.5744 48.1138 25.5744C50.2142 25.5744 51.9218 24.1788 51.9218 24.1788C51.9218 24.1788 51.9973 24.8856 52.0427 24.9944C52.0729 25.085 52.1787 25.1575 52.2844 25.1575H54.3093C54.4756 25.1575 54.5662 25.0125 54.5662 24.8494L54.5964 11.31C54.5964 11.1469 54.4756 11.0019 54.3093 11.0019ZM18.496 10.9838H15.2773C15.1413 10.9838 15.0204 11.1469 15.0204 11.3463V24.65C15.0204 25.0125 15.2169 25.1394 15.4738 25.1394H18.3751C18.6773 25.1394 18.7529 24.9763 18.7529 24.65V11.2919C18.7529 11.1288 18.632 10.9838 18.496 10.9838ZM16.9093 4.8575C15.7458 4.8575 14.824 5.96313 14.824 7.35875C14.824 8.75438 15.7458 9.86 16.9093 9.86C18.0427 9.86 18.9644 8.75438 18.9644 7.35875C18.9644 5.96313 18.0427 4.8575 16.9093 4.8575ZM41.8276 4.40438H38.6391C38.5031 4.40438 38.3822 4.54938 38.3822 4.7125V12.1256H33.3804V4.7125C33.3804 4.54938 33.2596 4.40438 33.1236 4.40438H29.9049C29.7689 4.40438 29.648 4.54938 29.648 4.7125V24.8494C29.648 25.0125 29.784 25.1575 29.9049 25.1575H33.1236C33.2596 25.1575 33.3804 25.0125 33.3804 24.8494V16.24H38.3822L38.352 24.8494C38.352 25.0125 38.4729 25.1575 38.6089 25.1575H41.8276C41.9636 25.1575 42.0844 25.0125 42.0844 24.8494V4.7125C42.0844 4.54938 41.9636 4.40438 41.8276 4.40438ZM13.3129 13.3219V23.7256C13.3129 23.7981 13.2978 23.925 13.2222 23.9613C13.2222 23.9613 11.3333 25.5744 8.22044 25.5744C4.45778 25.5744 0 24.1606 0 14.8444C0 5.52813 3.89867 3.60688 7.70667 3.625C11.0009 3.625 12.3307 4.51313 12.5422 4.67625C12.6027 4.76688 12.6329 4.83938 12.6329 4.93L11.9982 8.15625C11.9982 8.31938 11.8622 8.51875 11.696 8.46438C11.152 8.265 10.336 7.86625 8.41689 7.86625C6.19556 7.86625 3.808 8.6275 3.808 14.6269C3.808 20.6263 6.07467 21.3331 7.70667 21.3331C9.09689 21.3331 9.59556 21.1338 9.59556 21.1338V16.965H7.37422C7.208 16.965 7.08711 16.82 7.08711 16.6569V13.3219C7.08711 13.1588 7.208 13.0138 7.37422 13.0138H13.0258C13.192 13.0138 13.3129 13.1588 13.3129 13.3219Z" fill="white"/>
</g>
<defs>
<clipPath id="clip0">
<rect width="68" height="29" fill="white"/>
</clipPath>
</defs>
</svg>
