<svg width="52" height="51" viewBox="0 0 52 51" fill="none" xmlns="http://www.w3.org/2000/svg">
<path d="M44.2812 4.98047H8.53125C7.6693 4.98047 6.84265 5.31629 6.23315 5.91407C5.62366 6.51184 5.28125 7.32259 5.28125 8.16797V43.2305C5.28125 44.0758 5.62366 44.8866 6.23315 45.4844C6.84265 46.0821 7.6693 46.418 8.53125 46.418H44.2812C45.1432 46.418 45.9699 46.0821 46.5793 45.4844C47.1888 44.8866 47.5312 44.0758 47.5312 43.2305V8.16797C47.5312 7.32259 47.1888 6.51184 46.5793 5.91407C45.9699 5.31629 45.1432 4.98047 44.2812 4.98047ZM18.2325 42.6806H11.7325V20.3681H18.2325V42.6806ZM14.9825 17.9775C12.7335 17.9775 10.92 16.1957 10.92 13.9931C10.92 11.7906 12.7335 10.0088 14.9825 10.0088C17.2315 10.0088 19.045 11.7937 19.045 13.9931C19.045 16.1925 17.2283 17.9775 14.9825 17.9775ZM40.9825 42.6806H34.4825V29.1338C34.4825 28.4963 33.826 27.4539 33.3645 27.2021C32.7551 26.8674 31.317 26.8356 30.6589 27.1479L27.9809 28.4118V42.6822H21.4809V20.3697H27.9809V21.3499C30.5516 20.1976 34.1234 20.3108 36.5446 21.6431C39.1121 23.0536 40.9809 26.206 40.9809 29.1338V42.6806H40.9825Z" fill="white"/>
</svg>
