<svg width="695" height="486" viewBox="0 0 695 486" fill="none" xmlns="http://www.w3.org/2000/svg">
<path d="M35 88.5L1 452V485.5H694V223.5L615 88.5L516.5 452L480 392.5V257.5V88.5L404 69L316.5 116.5L263 452L192.5 392.5V88.5H35Z" stroke="white"/>
<path d="M35 20.5L1 384V417.5H694V155.5L615 20.5L516.5 384L480 324.5V189.5V20.5L404 1L316.5 48.5L263 384L192.5 324.5V20.5H35Z" stroke="white"/>
<path d="M35 19.5V92M192.5 19.5L191 87" stroke="white" stroke-opacity="0.26"/>
<path d="M406 4V69" stroke="white"/>
<path d="M316 50V115" stroke="white"/>
<path d="M615 22.5V90" stroke="white"/>
<path d="M1.5 417V484" stroke="white"/>
</svg>
